<svg width="28" height="28" viewBox="0 0 28 28" fill="none" xmlns="http://www.w3.org/2000/svg">
<path fill-rule="evenodd" clip-rule="evenodd" d="M19.1999 10.4517C22.0718 10.4517 24.3999 8.11199 24.3999 5.22584C24.3999 2.33969 22.0718 0 19.1999 0C16.328 0 13.9999 2.33969 13.9999 5.22584C13.9999 8.11199 16.328 10.4517 19.1999 10.4517ZM19.1999 8.45199C20.9577 8.45199 22.4 7.01716 22.4 5.22584C22.4 3.43452 20.9577 1.99968 19.1999 1.99968C17.4421 1.99968 15.9998 3.43452 15.9998 5.22584C15.9998 7.01716 17.4421 8.45199 19.1999 8.45199Z" fill="#007AFF"/>
<path d="M15.5106 13.8496C14.6124 14.2847 13.8395 14.977 13.0894 16.0625C12.7754 16.5168 12.1526 16.6306 11.6983 16.3167C11.2439 16.0028 11.1301 15.3801 11.444 14.9258C12.3415 13.6271 13.3605 12.6691 14.6387 12.05C15.9075 11.4354 17.3513 11.1938 19.0361 11.1938C23.9644 11.1938 28 14.6447 28 19.1614C28 19.7136 27.5523 20.1612 27 20.1612H19.6334C19.0811 20.1612 18.6334 19.7136 18.6334 19.1614C18.6334 18.6092 19.0811 18.1616 19.6334 18.1616H25.9038C25.3703 15.4162 22.6698 13.1935 19.0361 13.1935C17.5352 13.1935 16.4182 13.41 15.5106 13.8496Z" fill="#007AFF"/>
<path fill-rule="evenodd" clip-rule="evenodd" d="M1.9999 14.8065C1.9999 14.2543 1.55221 13.8067 0.999952 13.8067C0.447694 13.8067 -2.40386e-08 14.2543 0 14.8065L5.30363e-07 27.0002C5.54401e-07 27.5524 0.447694 28 0.999953 28C1.55221 28 1.9999 27.5524 1.9999 27.0002V25.3871H18.3333C18.5985 25.3871 18.8528 25.2817 19.0404 25.0942C19.2279 24.9067 19.3333 24.6524 19.3333 24.3872C19.3333 23.3822 18.7847 22.2818 18.0379 21.4634C17.2755 20.6277 16.14 19.9035 14.7878 19.9035H11.4262C11.3039 19.3112 11.073 18.6857 10.7144 18.1296C10.1234 17.2131 9.12962 16.4196 7.69357 16.4196H1.9999V14.8065ZM9.35886 19.9035C9.27909 19.6642 9.17121 19.4266 9.03369 19.2133C8.71201 18.7145 8.2859 18.4193 7.69357 18.4193H1.9999L1.9999 23.3874H16.9894C16.8763 23.1973 16.7339 23.0012 16.5605 22.8111C16.0427 22.2435 15.4054 21.9032 14.7878 21.9032H6.51511C5.96285 21.9032 5.51516 21.4555 5.51516 20.9033C5.51516 20.3512 5.96285 19.9035 6.51511 19.9035H9.35886Z" fill="#007AFF"/>
</svg>
