<svg width="31" height="28" viewBox="0 0 31 28" fill="none" xmlns="http://www.w3.org/2000/svg">
<path d="M27.4231 3.65217H23.2917L21.2603 0.541739C21.1515 0.375187 21.0041 0.238613 20.8312 0.144117C20.6584 0.0496212 20.4653 0.000120225 20.2692 0H10.7308C10.5347 0.000120225 10.3416 0.0496212 10.1688 0.144117C9.99588 0.238613 9.8485 0.375187 9.73966 0.541739L7.70678 3.65217H3.57692C2.62826 3.65217 1.71846 4.03696 1.04766 4.72187C0.376853 5.40679 0 6.33573 0 7.30435V24.3478C0 25.3164 0.376853 26.2454 1.04766 26.9303C1.71846 27.6152 2.62826 28 3.57692 28H27.4231C28.3717 28 29.2815 27.6152 29.9523 26.9303C30.6231 26.2454 31 25.3164 31 24.3478V7.30435C31 6.33573 30.6231 5.40679 29.9523 4.72187C29.2815 4.03696 28.3717 3.65217 27.4231 3.65217ZM20.8654 15.2174C20.8654 16.3009 20.5507 17.3601 19.9612 18.261C19.3716 19.1618 18.5336 19.864 17.5532 20.2786C16.5728 20.6933 15.494 20.8018 14.4533 20.5904C13.4125 20.379 12.4565 19.8573 11.7061 19.0911C10.9557 18.325 10.4447 17.3488 10.2377 16.2861C10.0307 15.2235 10.1369 14.122 10.543 13.121C10.9491 12.1199 11.6368 11.2643 12.5192 10.6624C13.4015 10.0604 14.4388 9.73913 15.5 9.73913C16.923 9.73913 18.2877 10.3163 19.2939 11.3437C20.3001 12.371 20.8654 13.7645 20.8654 15.2174Z" fill="white"/>
</svg>
