<svg width="14" height="22" viewBox="0 0 14 22" fill="none" xmlns="http://www.w3.org/2000/svg">
<path d="M1 6.55556V15.4444C1 16.9179 1.63214 18.3309 2.75736 19.3728C3.88258 20.4147 5.4087 21 7 21C8.5913 21 10.1174 20.4147 11.2426 19.3728C12.3679 18.3309 13 16.9179 13 15.4444V4.88889C13 3.85749 12.5575 2.86834 11.7698 2.13903C10.9822 1.40972 9.91391 1 8.8 1C7.68609 1 6.6178 1.40972 5.83015 2.13903C5.0425 2.86834 4.6 3.85749 4.6 4.88889V14.3333C4.6 14.9227 4.85286 15.4879 5.30294 15.9047C5.75303 16.3214 6.36348 16.5556 7 16.5556C7.63652 16.5556 8.24697 16.3214 8.69706 15.9047C9.14714 15.4879 9.4 14.9227 9.4 14.3333V6.55556" stroke="#007AFF" stroke-width="2" stroke-linecap="round" stroke-linejoin="round"/>
</svg>
