<svg width="13" height="12" viewBox="0 0 13 12" fill="none" xmlns="http://www.w3.org/2000/svg">
<path fill-rule="evenodd" clip-rule="evenodd" d="M6.5 11.9979C6.50125 11.9986 6.5025 11.9993 6.50375 12L6.50737 11.9937C9.5006 10.2855 11.2522 8.79356 12.168 7.33413C13.1261 5.80736 13.1136 4.40937 12.8367 3.09575L12.8322 3.0748L12.8268 3.0541C12.6119 2.23718 11.7149 0.560134 9.72161 0.086517C8.60682 -0.17837 7.71176 0.204683 7.07324 0.698051C6.86108 0.861982 6.66901 1.04514 6.5 1.22531C6.33099 1.04514 6.13892 0.861982 5.92676 0.698051C5.28824 0.204683 4.39318 -0.17837 3.27839 0.0865169C1.28514 0.560134 0.388076 2.23718 0.173198 3.0541L0.167752 3.0748L0.163337 3.09575C-0.113552 4.40937 -0.126059 5.80736 0.832 7.33413C1.7478 8.79356 3.49941 10.2855 6.49263 11.9937L6.49625 12C6.4975 11.9993 6.49875 11.9986 6.5 11.9979ZM5.80712 3.10828C5.76954 3.0605 5.73197 3.0121 5.69417 2.9634C5.45127 2.65045 5.19853 2.32483 4.8664 2.0682C4.51254 1.79478 4.14379 1.6612 3.6794 1.77155C2.53034 2.04458 1.97906 3.03277 1.85462 3.47611C1.64231 4.49792 1.65948 5.39236 2.30059 6.41405C2.91642 7.39544 4.14767 8.55786 6.5 9.98805C8.85233 8.55786 10.0836 7.39544 10.6994 6.41405C11.3405 5.39236 11.3577 4.49792 11.1454 3.47611C11.0209 3.03277 10.4697 2.04458 9.3206 1.77155C8.85621 1.6612 8.48746 1.79478 8.1336 2.0682C7.80147 2.32483 7.54873 2.65045 7.30583 2.9634C7.26395 3.01736 7.22224 3.07109 7.18059 3.12388C6.88421 3.49946 6.33925 3.56386 5.96337 3.26772C5.90326 3.22036 5.85111 3.16664 5.80712 3.10828Z" fill="#007AFF"/>
</svg>
