<svg width="22" height="20" viewBox="0 0 22 20" fill="none" xmlns="http://www.w3.org/2000/svg">
<path fill-rule="evenodd" clip-rule="evenodd" d="M11 1.99351C10.0387 1.09209 8.73544 0.369969 7.30465 0.106865C5.60179 -0.20627 3.71875 0.134968 2.08272 1.58145C0.992468 2.54538 0.310446 4.06188 0.0844452 5.70063C-0.14346 7.35319 0.0784732 9.21237 0.890454 10.9353C1.47789 12.1818 2.87638 13.7498 4.3296 15.1932C5.81473 16.6683 7.4683 18.1193 8.6784 19.1448C10.0238 20.285 11.9762 20.2851 13.3216 19.1449C14.5317 18.1193 16.1853 16.6683 17.6704 15.1932C19.1236 13.7498 20.5221 12.1818 21.1095 10.9353C21.9215 9.21239 22.1435 7.35321 21.9156 5.70065C21.6896 4.0619 21.0075 2.54539 19.9173 1.58146C18.2813 0.134984 16.3982 -0.206259 14.6954 0.106872C13.2646 0.369973 11.9613 1.09209 11 1.99351ZM6.99032 1.82016C5.7591 1.59375 4.43101 1.82922 3.23446 2.88714C2.53892 3.50209 1.99426 4.58854 1.80803 5.93889C1.62371 7.27542 1.804 8.79148 2.46403 10.192C2.90358 11.1247 4.08448 12.496 5.55503 13.9566C6.99366 15.3855 8.60822 16.8031 9.80258 17.8153C10.4991 18.4056 11.5009 18.4056 12.1974 17.8153C13.3918 16.8031 15.0063 15.3855 16.445 13.9566C17.9155 12.496 19.0964 11.1247 19.536 10.192C20.196 8.79149 20.3763 7.27544 20.192 5.9389C20.0057 4.58856 19.4611 3.50211 18.7655 2.88715C17.569 1.82923 16.2409 1.59376 15.0097 1.82017C13.7488 2.05201 12.5906 2.77234 11.8476 3.61707C11.3987 4.12747 10.6013 4.12747 10.1524 3.61707C9.40938 2.77233 8.25116 2.05201 6.99032 1.82016Z" fill="#007AFF"/>
</svg>
