<svg width="14" height="12" viewBox="0 0 14 12" fill="none" xmlns="http://www.w3.org/2000/svg">
<path d="M3.36 2.4C3.97856 2.4 4.48 1.86274 4.48 1.2C4.48 0.537258 3.97856 0 3.36 0H1.12C0.501441 0 0 0.537258 0 1.2C0 1.86274 0.501441 2.4 1.12 2.4H3.36Z" fill="white"/>
<path d="M10.64 2.64853V10.8C10.64 11.1314 10.8907 11.4 11.2 11.4C11.5093 11.4 11.76 11.1314 11.76 10.8V2.64851L13.044 4.02426C13.2627 4.25858 13.6173 4.25858 13.836 4.02427C14.0547 3.78995 14.0547 3.41006 13.836 3.17574L11.596 0.775774C11.5441 0.720068 11.4844 0.677606 11.4207 0.648386C11.353 0.617245 11.2784 0.6 11.2 0.6C11.1137 0.6 11.032 0.620916 10.959 0.658276C10.9029 0.686895 10.8504 0.726068 10.804 0.775787L8.56402 3.17574C8.34533 3.41005 8.34533 3.78995 8.56402 4.02426C8.78271 4.25858 9.13729 4.25858 9.35598 4.02426L10.64 2.64853Z" fill="white"/>
<path d="M7.84 12C8.45856 12 8.96 11.4627 8.96 10.8C8.96 10.1373 8.45856 9.6 7.84 9.6H1.12C0.501441 9.6 0 10.1373 0 10.8C0 11.4627 0.501441 12 1.12 12H7.84Z" fill="white"/>
<path d="M6.72 6C6.72 6.66274 6.21856 7.2 5.6 7.2H1.12C0.501441 7.2 0 6.66274 0 6C0 5.33726 0.501441 4.8 1.12 4.8H5.6C6.21856 4.8 6.72 5.33726 6.72 6Z" fill="white"/>
</svg>
