<svg width="25" height="24" viewBox="0 0 25 24" fill="none" xmlns="http://www.w3.org/2000/svg">
<path fill-rule="evenodd" clip-rule="evenodd" d="M6.54598 17.927C6.75846 17.4269 6.8877 16.8508 6.8877 16.1565C5.31665 14.8578 4.33665 13.0198 4.33665 10.982C4.33665 7.04677 7.99151 3.8566 12.5 3.8566C17.0085 3.8566 20.6633 7.04677 20.6633 10.982C20.6633 14.9173 17.0085 18.1075 12.5 18.1075C11.7953 18.1075 11.1115 18.0295 10.4592 17.883C10.0274 18.3612 9.19844 18.9788 7.81567 19.4703C7.01957 19.7533 6.03993 19.9946 4.84686 20.1433C5.50414 19.4877 6.16141 18.832 6.54598 17.927ZM11.0145 19.8658C11.5001 19.9306 11.9962 19.9641 12.5 19.9641C17.7605 19.9641 22.5 16.1891 22.5 10.982C22.5 5.77496 17.7605 2 12.5 2C7.23945 2 2.5 5.77496 2.5 10.982C2.5 13.2841 3.45789 15.3417 4.9635 16.8913C4.78453 17.5618 4.32734 18.0532 3.55679 18.8218C2.99711 19.3802 2.8511 20.2367 3.19366 20.9521C3.53621 21.6676 4.29132 22.0833 5.07172 21.986C7.89569 21.6338 9.81418 20.7845 11.0145 19.8658Z" fill="#007AFF"/>
</svg>
