<svg width="25" height="24" viewBox="0 0 25 24" fill="none" xmlns="http://www.w3.org/2000/svg">
<path fill-rule="evenodd" clip-rule="evenodd" d="M6.54501 17.927C6.75749 17.4269 6.88672 16.8508 6.88672 16.1565C5.31567 14.8578 4.33568 13.0198 4.33568 10.982C4.33568 7.04677 7.99053 3.8566 12.499 3.8566C17.0075 3.8566 20.6624 7.04677 20.6624 10.982C20.6624 14.9173 17.0075 18.1075 12.499 18.1075C11.7943 18.1075 11.1105 18.0295 10.4582 17.883C10.0265 18.3612 9.19746 18.9788 7.81469 19.4703C7.0186 19.7533 6.03895 19.9946 4.84589 20.1433C5.50316 19.4877 6.16043 18.832 6.54501 17.927ZM11.0136 19.8658C11.4991 19.9306 11.9952 19.9641 12.499 19.9641C17.7596 19.9641 22.499 16.1891 22.499 10.982C22.499 5.77496 17.7596 2 12.499 2C7.23848 2 2.49902 5.77496 2.49902 10.982C2.49902 13.2841 3.45691 15.3417 4.96252 16.8913C4.78355 17.5618 4.32637 18.0532 3.55581 18.8218C2.99613 19.3802 2.85013 20.2367 3.19268 20.9521C3.53523 21.6676 4.29034 22.0833 5.07074 21.986C7.89472 21.6338 9.8132 20.7845 11.0136 19.8658Z" fill="#A2ACB0"/>
</svg>
