<svg width="25" height="24" viewBox="0 0 25 24" fill="none" xmlns="http://www.w3.org/2000/svg">
<path fill-rule="evenodd" clip-rule="evenodd" d="M2.69922 5C2.69922 3.34315 4.04236 2 5.69922 2H19.6992C21.3561 2 22.6992 3.34315 22.6992 5V12C22.6992 13.6569 21.3561 15 19.6992 15H5.69922C4.04236 15 2.69922 13.6569 2.69922 12V5ZM5.69922 4C5.14693 4 4.69922 4.44772 4.69922 5V12C4.69922 12.5523 5.14693 13 5.69922 13H19.6992C20.2515 13 20.6992 12.5523 20.6992 12V5C20.6992 4.44772 20.2515 4 19.6992 4H5.69922ZM2.69922 18C2.69922 17.4477 3.14693 17 3.69922 17H15.6992C16.2515 17 16.6992 17.4477 16.6992 18C16.6992 18.5523 16.2515 19 15.6992 19H3.69922C3.14693 19 2.69922 18.5523 2.69922 18ZM3.69922 21C3.14693 21 2.69922 21.4477 2.69922 22C2.69922 22.5523 3.14693 23 3.69922 23H12.6992C13.2515 23 13.6992 22.5523 13.6992 22C13.6992 21.4477 13.2515 21 12.6992 21H3.69922ZM17.6992 20.5C17.6992 20.2239 17.9231 20 18.1992 20H19.6992V18.5C19.6992 18.2239 19.9231 18 20.1992 18C20.4754 18 20.6992 18.2239 20.6992 18.5V20H22.1992C22.4754 20 22.6992 20.2239 22.6992 20.5C22.6992 20.7761 22.4754 21 22.1992 21H20.6992V22.5C20.6992 22.7761 20.4754 23 20.1992 23C19.9231 23 19.6992 22.7761 19.6992 22.5V21H18.1992C17.9231 21 17.6992 20.7761 17.6992 20.5Z" fill="#007AFF"/>
</svg>
