<svg width="25" height="24" viewBox="0 0 25 24" fill="none" xmlns="http://www.w3.org/2000/svg">
<path fill-rule="evenodd" clip-rule="evenodd" d="M20.8183 4.62209C20.4688 4.05234 19.8435 3.7539 19.2181 3.83003C19.0865 3.84606 18.8349 3.9373 18.3166 4.30578C17.8124 4.66423 17.1736 5.19542 16.2682 5.94958L15.2449 6.80194V14.243L16.458 15.098C17.3409 15.7202 17.9598 16.1556 18.447 16.4453C18.9436 16.7406 19.1842 16.8088 19.3164 16.8167C19.9218 16.8527 20.5101 16.5419 20.8362 15.986C20.9122 15.8564 20.9943 15.6012 21.0383 15.0111C21.0816 14.4313 21.0822 13.6576 21.0822 12.5578V8.34422C21.0822 7.1467 21.0816 6.29964 21.0349 5.66867C20.987 5.0215 20.8971 4.7504 20.8183 4.62209ZM13.4267 13.8054V7.2851H7.67911C7.06531 7.2851 6.65179 7.28562 6.33123 7.30812C6.01935 7.33 5.8637 7.36945 5.75833 7.41434C5.35293 7.58706 5.02295 7.92201 4.84914 8.35362C4.802 8.47066 4.76271 8.63922 4.74113 8.96451C4.71904 9.29748 4.71858 9.72592 4.71858 10.3562V11.7616C4.71858 12.0586 4.71943 12.1493 4.72532 12.2176C4.79959 13.0774 5.45579 13.7267 6.24367 13.7987C6.30591 13.8044 6.38994 13.8054 6.68029 13.8054H13.4267ZM14.0068 5.46692L15.1354 4.52684C16.003 3.80418 16.6952 3.22762 17.2632 2.82388C17.8237 2.42539 18.3894 2.09933 18.9984 2.02518C20.3481 1.86087 21.6564 2.51104 22.3682 3.67139C22.6874 4.19187 22.7965 4.83661 22.8481 5.53454C22.9003 6.24074 22.9003 7.15542 22.9003 8.30547V12.5961C22.9003 13.6489 22.9003 14.4907 22.8514 15.1463C22.8027 15.7996 22.6994 16.4031 22.4045 16.9059C21.7415 18.0361 20.5143 18.7094 19.2083 18.6316C18.6237 18.5968 18.0707 18.3369 17.5177 18.0081C16.9625 17.6779 16.286 17.2011 15.4431 16.6071L14.0476 15.6235H13.8095V18.6873C13.8095 20.4926 12.3802 22 10.5635 22C9.94972 22 9.33519 21.8239 8.80907 21.4668C7.67241 20.6952 6.83111 19.9843 6.33976 18.8837C5.94649 18.0028 5.81353 16.9474 5.78039 15.5691C4.22552 15.2895 3.05206 13.9736 2.91389 12.3741C2.90032 12.2169 2.90035 12.0407 2.9004 11.8028C2.9004 11.7893 2.9004 11.7756 2.9004 11.7616L2.9004 10.3259C2.90039 9.73346 2.90039 9.24447 2.92694 8.84416C2.95446 8.42937 3.01334 8.04502 3.16258 7.67444C3.51242 6.80572 4.18687 6.10754 5.04569 5.74165C5.41441 5.58456 5.7963 5.52301 6.20394 5.4944C6.59573 5.46691 7.07337 5.46691 7.64747 5.46692L14.0068 5.46692ZM7.60115 15.6235C7.63714 16.8702 7.7582 17.6009 8 18.1425C8.27494 18.7584 8.75331 19.2315 9.8302 19.9624C10.0402 20.105 10.2954 20.1818 10.5635 20.1818C11.3281 20.1818 11.9913 19.537 11.9913 18.6873V15.6235H7.60115Z" fill="#007AFF"/>
</svg>
