<svg width="25" height="24" viewBox="0 0 25 24" fill="none" xmlns="http://www.w3.org/2000/svg">
<path d="M17.2998 13.868C16.7475 13.868 16.2998 14.3069 16.2998 14.8484C16.2998 15.3899 16.7475 15.8289 17.2998 15.8289C17.8521 15.8289 18.2998 15.3899 18.2998 14.8484C18.2998 14.3069 17.8521 13.868 17.2998 13.868Z" fill="#A2ACB0"/>
<path fill-rule="evenodd" clip-rule="evenodd" d="M4.17777 7.50588C4.21001 7.48085 4.24417 7.45748 4.28022 7.43599L12.6793 2.42853C14.07 1.59936 15.8815 2.00883 16.7616 3.35134L19.5088 7.54186C20.5635 7.99775 21.2998 9.03187 21.2998 10.2346C22.9567 10.2346 24.2998 11.5515 24.2998 13.176V16.1173C24.2998 17.7418 22.9567 19.0587 21.2998 19.0587C21.2998 20.6831 19.9567 22 18.2998 22H5.2998C3.64295 22 2.2998 20.6831 2.2998 19.0587V10.2346C2.2998 8.99909 3.07676 7.9415 4.17777 7.50588ZM13.7184 4.10399C14.182 3.8276 14.7858 3.96409 15.0792 4.41159L16.9683 7.29325H8.36901L13.7184 4.10399ZM18.2998 9.25415C18.8521 9.25415 19.2998 9.69312 19.2998 10.2346H16.2998C14.643 10.2346 13.2998 11.5515 13.2998 13.176V16.1173C13.2998 17.7418 14.643 19.0587 16.2998 19.0587H19.2998C19.2998 19.6001 18.8521 20.0391 18.2998 20.0391H5.2998C4.74752 20.0391 4.2998 19.6001 4.2998 19.0587V10.2346C4.2998 9.69312 4.74752 9.25415 5.2998 9.25415H18.2998ZM16.2998 12.1955C15.7475 12.1955 15.2998 12.6345 15.2998 13.176V16.1173C15.2998 16.6588 15.7475 17.0978 16.2998 17.0978H21.2998C21.8521 17.0978 22.2998 16.6588 22.2998 16.1173V13.176C22.2998 12.6345 21.8521 12.1955 21.2998 12.1955H16.2998Z" fill="#A2ACB0"/>
</svg>
