<svg width="25" height="24" viewBox="0 0 25 24" fill="none" xmlns="http://www.w3.org/2000/svg">
<path d="M17.2969 13.868C16.7446 13.868 16.2969 14.3069 16.2969 14.8484C16.2969 15.3899 16.7446 15.8289 17.2969 15.8289C17.8492 15.8289 18.2969 15.3899 18.2969 14.8484C18.2969 14.3069 17.8492 13.868 17.2969 13.868Z" fill="#007AFF"/>
<path fill-rule="evenodd" clip-rule="evenodd" d="M4.17484 7.50588C4.20708 7.48085 4.24124 7.45748 4.27729 7.43599L12.6763 2.42853C14.0671 1.59936 15.8786 2.00883 16.7587 3.35134L19.5059 7.54186C20.5606 7.99775 21.2969 9.03187 21.2969 10.2346C22.9537 10.2346 24.2969 11.5515 24.2969 13.176V16.1173C24.2969 17.7418 22.9537 19.0587 21.2969 19.0587C21.2969 20.6831 19.9537 22 18.2969 22H5.29688C3.64002 22 2.29688 20.6831 2.29688 19.0587V10.2346C2.29688 8.99909 3.07383 7.9415 4.17484 7.50588ZM13.7155 4.10399C14.179 3.8276 14.7829 3.96409 15.0762 4.41159L16.9654 7.29325H8.36608L13.7155 4.10399ZM18.2969 9.25415C18.8492 9.25415 19.2969 9.69312 19.2969 10.2346H16.2969C14.64 10.2346 13.2969 11.5515 13.2969 13.176V16.1173C13.2969 17.7418 14.64 19.0587 16.2969 19.0587H19.2969C19.2969 19.6001 18.8492 20.0391 18.2969 20.0391H5.29688C4.74459 20.0391 4.29688 19.6001 4.29688 19.0587V10.2346C4.29688 9.69312 4.74459 9.25415 5.29688 9.25415H18.2969ZM16.2969 12.1955C15.7446 12.1955 15.2969 12.6345 15.2969 13.176V16.1173C15.2969 16.6588 15.7446 17.0978 16.2969 17.0978H21.2969C21.8492 17.0978 22.2969 16.6588 22.2969 16.1173V13.176C22.2969 12.6345 21.8492 12.1955 21.2969 12.1955H16.2969Z" fill="#007AFF"/>
</svg>
