<svg width="20" height="20" viewBox="0 0 20 20" fill="none" xmlns="http://www.w3.org/2000/svg">
<path fill-rule="evenodd" clip-rule="evenodd" d="M0.435974 2.18404C0 3.03968 0 4.15979 0 6.4V13.6C0 15.8402 0 16.9603 0.435974 17.816C0.819467 18.5686 1.43139 19.1805 2.18404 19.564C3.03968 20 4.15979 20 6.4 20H13.6C15.8402 20 16.9603 20 17.816 19.564C18.5686 19.1805 19.1805 18.5686 19.564 17.816C20 16.9603 20 15.8402 20 13.6V6.4C20 4.15979 20 3.03968 19.564 2.18404C19.1805 1.43139 18.5686 0.819467 17.816 0.435974C16.9603 0 15.8402 0 13.6 0H6.4C4.15979 0 3.03968 0 2.18404 0.435974C1.43139 0.819467 0.819467 1.43139 0.435974 2.18404Z" fill="#007AFF"/>
<path fill-rule="evenodd" clip-rule="evenodd" d="M15.7071 7.45711C16.0976 7.06658 16.0976 6.43342 15.7071 6.04289C15.3166 5.65237 14.6834 5.65237 14.2929 6.04289L8 12.3358L5.70711 10.0429C5.31658 9.65237 4.68342 9.65237 4.29289 10.0429C3.90237 10.4334 3.90237 11.0666 4.29289 11.4571L7.29289 14.4571C7.68342 14.8476 8.31658 14.8476 8.70711 14.4571L15.7071 7.45711Z" fill="white"/>
</svg>
