<svg width="20" height="20" viewBox="0 0 20 20" fill="none" xmlns="http://www.w3.org/2000/svg">
<path d="M1 6.4C1 5.26339 1.00078 4.47108 1.05118 3.85424C1.10062 3.24907 1.19279 2.90138 1.32698 2.63803C1.6146 2.07354 2.07354 1.6146 2.63803 1.32698C2.90138 1.19279 3.24907 1.10062 3.85424 1.05118C4.47108 1.00078 5.26339 1 6.4 1H13.6C14.7366 1 15.5289 1.00078 16.1458 1.05118C16.7509 1.10062 17.0986 1.19279 17.362 1.32698C17.9265 1.6146 18.3854 2.07354 18.673 2.63803C18.8072 2.90138 18.8994 3.24907 18.9488 3.85424C18.9992 4.47108 19 5.26339 19 6.4V13.6C19 14.7366 18.9992 15.5289 18.9488 16.1458C18.8994 16.7509 18.8072 17.0986 18.673 17.362C18.3854 17.9265 17.9265 18.3854 17.362 18.673C17.0986 18.8072 16.7509 18.8994 16.1458 18.9488C15.5289 18.9992 14.7366 19 13.6 19H6.4C5.26339 19 4.47108 18.9992 3.85424 18.9488C3.24907 18.8994 2.90138 18.8072 2.63803 18.673C2.07354 18.3854 1.6146 17.9265 1.32698 17.362C1.19279 17.0986 1.10062 16.7509 1.05118 16.1458C1.00078 15.5289 1 14.7366 1 13.6V6.4Z" stroke="#007AFF" stroke-width="2" stroke-linecap="round" stroke-linejoin="round"/>
</svg>
