<svg width="40" height="40" viewBox="0 0 40 40" fill="none" xmlns="http://www.w3.org/2000/svg">
<circle cx="19.799" cy="20" r="13" transform="rotate(-45 19.799 20)" fill="#ECF2FF" stroke="white" stroke-width="2"/>
<path fill-rule="evenodd" clip-rule="evenodd" d="M13.161 20C13.161 19.6134 13.4744 19.3 13.861 19.3L19.1007 19.3L19.1007 14.0603C19.1007 13.6737 19.4141 13.3603 19.8007 13.3603C20.1873 13.3603 20.5007 13.6737 20.5007 14.0603L20.5007 19.3H25.7404C26.127 19.3 26.4404 19.6134 26.4404 20C26.4404 20.3866 26.127 20.7 25.7404 20.7H20.5007L20.5007 25.9397C20.5007 26.3263 20.1873 26.6397 19.8007 26.6397C19.4141 26.6397 19.1007 26.3263 19.1007 25.9397L19.1007 20.7L13.861 20.7C13.4744 20.7 13.161 20.3866 13.161 20Z" fill="#007AFF"/>
</svg>
