<svg width="28" height="28" viewBox="0 0 28 28" fill="none" xmlns="http://www.w3.org/2000/svg">
<path d="M10.6996 4.96118C11.72 2.10331 12.2303 0.674377 12.9725 0.265599C13.6154 -0.0885331 14.3846 -0.0885331 15.0275 0.265599C15.7697 0.674377 16.28 2.10331 17.3004 4.96118L17.7922 6.33855C18.0872 7.16463 18.2347 7.57768 18.4889 7.8875C18.7136 8.16131 18.9969 8.37609 19.3159 8.51447C19.6769 8.67104 20.099 8.68977 20.943 8.72721L22.3504 8.78964C25.2706 8.91917 26.7307 8.98394 27.3326 9.59417C27.8541 10.1228 28.0918 10.8861 27.9677 11.6336C27.8244 12.4965 26.6797 13.4443 24.3902 15.3401L23.2868 16.2538C22.625 16.8018 22.2941 17.0758 22.0903 17.4239C21.9101 17.7315 21.8019 18.079 21.7744 18.4383C21.7432 18.8449 21.8566 19.2695 22.0833 20.1188L22.4613 21.5347C23.2456 24.4726 23.6377 25.9416 23.2676 26.7275C22.9468 27.4084 22.3246 27.8801 21.605 27.988C20.7742 28.1125 19.5565 27.2694 17.1211 25.5832L15.9473 24.7705C15.2433 24.2831 14.8913 24.0394 14.5111 23.9447C14.1751 23.861 13.8249 23.861 13.4889 23.9447C13.1087 24.0394 12.7567 24.2831 12.0527 24.7705L10.8789 25.5832C8.44349 27.2694 7.22577 28.1125 6.39504 27.988C5.67537 27.8801 5.05315 27.4084 4.73245 26.7275C4.36226 25.9416 4.75442 24.4726 5.53873 21.5347L5.91673 20.1188C6.14345 19.2695 6.2568 18.8449 6.22563 18.4383C6.19808 18.079 6.08987 17.7315 5.90974 17.4239C5.70592 17.0758 5.37502 16.8018 4.71323 16.2538L3.60979 15.3401C1.3203 13.4443 0.175554 12.4965 0.0323252 11.6336C-0.0917566 10.8861 0.145908 10.1228 0.66738 9.59417C1.26932 8.98394 2.7294 8.91917 5.64956 8.78964L7.05695 8.72721C7.90105 8.68977 8.32309 8.67104 8.68405 8.51447C9.00305 8.37609 9.28636 8.16131 9.51107 7.8875C9.76532 7.57768 9.91281 7.16463 10.2078 6.33855L10.6996 4.96118Z" fill="url(#paint0_linear_50_34279)"/>
<defs>
<linearGradient id="paint0_linear_50_34279" x1="0" y1="14" x2="28" y2="14" gradientUnits="userSpaceOnUse">
<stop offset="0.5" stop-color="#007AFF"/>
<stop offset="0.5" stop-color="#ECF2FF"/>
</linearGradient>
</defs>
</svg>
