<svg width="19" height="24" viewBox="0 0 19 24" fill="none" xmlns="http://www.w3.org/2000/svg">
<path fill-rule="evenodd" clip-rule="evenodd" d="M11.414 0.285591C11.8086 0.67204 11.8151 1.30517 11.4287 1.69973L8.49292 4.69711C8.82387 4.66154 9.15986 4.6433 9.5 4.6433C14.7662 4.6433 19 8.99612 19 14.3217C19 19.6472 14.7662 24 9.5 24C4.23382 24 0 19.6472 0 14.3217C0 13.7694 0.447715 13.3217 1 13.3217C1.55228 13.3217 2 13.7694 2 14.3217C2 18.582 5.37734 22 9.5 22C13.6227 22 17 18.582 17 14.3217C17 10.0613 13.6227 6.6433 9.5 6.6433C8.33249 6.6433 7.22797 6.91584 6.24268 7.40309L11.4287 12.6979C11.8151 13.0925 11.8086 13.7256 11.414 14.1121C11.0195 14.4985 10.3863 14.4919 9.99988 14.0974L3.92845 7.89855C3.54766 7.50977 3.54766 6.88787 3.92845 6.49909L9.99988 0.300273C10.3863 -0.0942849 11.0195 -0.100858 11.414 0.285591Z" fill="#E53935"/>
</svg>
