<svg width="12" height="12" viewBox="0 0 12 12" fill="none" xmlns="http://www.w3.org/2000/svg">
<path d="M4.58554 2.12622C5.02287 0.901419 5.24154 0.289019 5.55963 0.113828C5.83519 -0.0379428 6.16481 -0.0379428 6.44037 0.113828C6.75846 0.289019 6.97713 0.901419 7.41446 2.12622L7.62524 2.71652C7.75165 3.07056 7.81486 3.24758 7.92383 3.38036C8.02013 3.4977 8.14155 3.58975 8.27826 3.64906C8.43296 3.71616 8.61384 3.72419 8.97559 3.74023L9.57876 3.76699C10.8303 3.8225 11.456 3.85026 11.714 4.11179C11.9375 4.33835 12.0393 4.66545 11.9861 4.98582C11.9248 5.35562 11.4342 5.76186 10.4529 6.57435L9.98005 6.96593C9.69642 7.20078 9.55461 7.31821 9.46726 7.46738C9.39006 7.59921 9.34368 7.74814 9.33187 7.90214C9.31851 8.0764 9.36709 8.25837 9.46426 8.62233L9.62626 9.22917C9.96239 10.4883 10.1305 11.1178 9.97181 11.4547C9.83436 11.7465 9.5677 11.9486 9.25927 11.9948C8.90324 12.0482 8.38136 11.6869 7.33761 10.9642L6.83456 10.6159C6.53286 10.407 6.38201 10.3026 6.21905 10.262C6.07504 10.2261 5.92496 10.2261 5.78095 10.262C5.61799 10.3026 5.46714 10.407 5.16544 10.6159L4.66239 10.9642C3.61864 11.6869 3.09676 12.0482 2.74073 11.9948C2.4323 11.9486 2.16564 11.7465 2.02819 11.4547C1.86954 11.1178 2.03761 10.4883 2.37374 9.22917L2.53574 8.62233C2.63291 8.25837 2.68149 8.0764 2.66813 7.90214C2.65632 7.74814 2.60994 7.59921 2.53275 7.46738C2.44539 7.31821 2.30358 7.20078 2.01995 6.96593L1.54705 6.57435C0.565843 5.76186 0.0752373 5.35562 0.0138537 4.98582C-0.0393242 4.66545 0.0625321 4.33835 0.28602 4.11179C0.543994 3.85026 1.16974 3.8225 2.42124 3.76699L3.02441 3.74023C3.38616 3.72419 3.56704 3.71616 3.72174 3.64906C3.85845 3.58975 3.97987 3.4977 4.07617 3.38036C4.18514 3.24758 4.24835 3.07056 4.37476 2.71652L4.58554 2.12622Z" fill="#A2ACB0"/>
</svg>
